<svg width="100" height="100" viewBox="0 0 100 100" fill="none" xmlns="http://www.w3.org/2000/svg">
<g clip-path="url(#clip0_12_2)">
<path d="M100 0H0V100H100V0Z" fill="black"/>
<path d="M50.5125 71.768C47.1418 71.768 44.1552 70.8293 41.5525 68.952C38.9925 67.0747 36.9872 64.408 35.5365 60.952C34.1285 57.496 33.4245 53.3787 33.4245 48.6C33.4245 43.8213 34.1285 39.704 35.5365 36.248C36.9872 32.792 38.9925 30.1253 41.5525 28.248C44.1552 26.3707 47.1418 25.432 50.5125 25.432C53.9258 25.432 56.9125 26.3707 59.4725 28.248C62.0325 30.1253 64.0165 32.792 65.4245 36.248C66.8752 39.704 67.6005 43.8213 67.6005 48.6C67.6005 53.3787 66.8752 57.496 65.4245 60.952C64.0165 64.408 62.0325 67.0747 59.4725 68.952C56.9125 70.8293 53.9258 71.768 50.5125 71.768ZM38.9285 48.6C38.9285 51.5013 39.2272 54.1253 39.8245 56.472C40.4645 58.776 41.3392 60.7173 42.4485 62.296L54.8645 31.512C53.5418 30.7867 52.0912 30.424 50.5125 30.424C48.2512 30.424 46.2458 31.1707 44.4965 32.664C42.7472 34.1147 41.3818 36.2053 40.4005 38.936C39.4192 41.624 38.9285 44.8453 38.9285 48.6ZM50.5125 66.84C52.7738 66.84 54.7792 66.1147 56.5285 64.664C58.2778 63.1707 59.6432 61.0587 60.6245 58.328C61.6058 55.5973 62.0965 52.3547 62.0965 48.6C62.0965 45.6987 61.7765 43.096 61.1365 40.792C60.5392 38.4453 59.6858 36.4827 58.5765 34.904L46.0965 65.752C47.4618 66.4773 48.9338 66.84 50.5125 66.84Z" fill="white"/>
</g>
<defs>
<clipPath id="clip0_12_2">
<rect width="100" height="100" fill="white"/>
</clipPath>
</defs>
</svg>
