<svg width="320" height="100" viewBox="0 0 320 100" fill="none" xmlns="http://www.w3.org/2000/svg">
<g clip-path="url(#clip0_14_2)">
<path d="M320 0H0V100H320V0Z" fill="black"/>
<path d="M107.334 66V62.304L121.35 45.936H107.574V42.192H126.102V45.888L112.038 62.256H126.342V66H107.334ZM145.859 66.576C143.619 66.576 141.635 66.064 139.907 65.04C138.211 63.984 136.867 62.528 135.875 60.672C134.883 58.784 134.387 56.592 134.387 54.096C134.387 51.6 134.867 49.424 135.827 47.568C136.819 45.68 138.179 44.224 139.907 43.2C141.635 42.144 143.651 41.616 145.955 41.616C148.259 41.616 150.227 42.144 151.859 43.2C153.491 44.224 154.739 45.584 155.603 47.28C156.467 48.976 156.899 50.8 156.899 52.752C156.899 53.104 156.883 53.456 156.851 53.808C156.851 54.16 156.851 54.56 156.851 55.008H138.371C138.467 56.768 138.867 58.24 139.571 59.424C140.307 60.576 141.219 61.44 142.307 62.016C143.427 62.592 144.611 62.88 145.859 62.88C147.619 62.88 148.995 62.512 149.987 61.776C150.979 61.04 151.731 60.016 152.243 58.704H156.227C155.683 60.912 154.547 62.784 152.819 64.32C151.091 65.824 148.771 66.576 145.859 66.576ZM145.859 45.216C144.003 45.216 142.371 45.776 140.963 46.896C139.587 48.016 138.739 49.584 138.419 51.6H152.915C152.787 49.616 152.067 48.064 150.755 46.944C149.475 45.792 147.843 45.216 145.859 45.216ZM164.032 66V62.544H170.128V46.848C170.128 46.048 169.744 45.648 168.976 45.648H164.656V42.192H170.464C171.52 42.192 172.368 42.48 173.008 43.056C173.648 43.632 173.968 44.48 173.968 45.6V46.608H174.16C174.544 45.008 175.264 43.776 176.32 42.912C177.408 42.048 178.912 41.616 180.832 41.616H185.2V45.888H180.256C178.304 45.888 176.8 46.544 175.744 47.856C174.688 49.136 174.16 50.784 174.16 52.8V62.544H181.648V66H164.032ZM203.181 66.576C200.941 66.576 198.957 66.064 197.229 65.04C195.501 64.016 194.141 62.576 193.149 60.72C192.157 58.832 191.661 56.624 191.661 54.096C191.661 51.568 192.157 49.376 193.149 47.52C194.141 45.632 195.501 44.176 197.229 43.152C198.957 42.128 200.941 41.616 203.181 41.616C205.421 41.616 207.405 42.128 209.133 43.152C210.861 44.176 212.221 45.632 213.213 47.52C214.205 49.376 214.701 51.568 214.701 54.096C214.701 56.624 214.205 58.832 213.213 60.72C212.221 62.576 210.861 64.016 209.133 65.04C207.405 66.064 205.421 66.576 203.181 66.576ZM203.181 62.736C204.557 62.736 205.805 62.432 206.925 61.824C208.045 61.216 208.925 60.272 209.565 58.992C210.237 57.712 210.573 56.08 210.573 54.096C210.573 52.112 210.237 50.48 209.565 49.2C208.925 47.92 208.045 46.976 206.925 46.368C205.805 45.76 204.557 45.456 203.181 45.456C201.837 45.456 200.605 45.76 199.485 46.368C198.365 46.976 197.469 47.92 196.797 49.2C196.125 50.48 195.789 52.112 195.789 54.096C195.789 57.072 196.509 59.264 197.949 60.672C199.389 62.048 201.133 62.736 203.181 62.736Z" fill="white"/>
</g>
<defs>
<clipPath id="clip0_14_2">
<rect width="320" height="100" fill="white"/>
</clipPath>
</defs>
</svg>
