<svg width="277" height="43" viewBox="0 0 277 43" fill="none" xmlns="http://www.w3.org/2000/svg">
<path fill-rule="evenodd" clip-rule="evenodd" d="M129.297 42.4005V1.12046L135.219 0V15.2146C137.745 13.013 140.806 11.9122 144.399 11.9122C147.242 11.9122 149.808 12.6002 152.098 13.9762C154.428 15.3522 156.264 17.2 157.606 19.5195C158.949 21.8391 159.62 24.4535 159.62 27.3627C159.62 30.272 158.928 32.9061 157.547 35.2649C156.205 37.5845 154.369 39.4322 152.039 40.8082C149.749 42.1842 147.163 42.8722 144.281 42.8722C142.622 42.8722 141.003 42.6167 139.424 42.1056C137.884 41.5552 136.463 40.7886 135.16 39.8057V42.4005H129.297ZM143.629 37.7417C145.564 37.7417 147.281 37.2896 148.782 36.3854C150.322 35.4811 151.545 34.2624 152.454 32.7291C153.362 31.1566 153.816 29.3874 153.816 27.4217C153.816 25.456 153.362 23.6869 152.454 22.1143C151.545 20.5417 150.322 19.3033 148.782 18.3991C147.281 17.4949 145.564 17.0427 143.629 17.0427C141.931 17.0427 140.352 17.3573 138.891 17.9863C137.43 18.6153 136.206 19.4999 135.219 20.64V34.2034C136.206 35.3042 137.43 36.1691 138.891 36.7982C140.391 37.4272 141.971 37.7417 143.629 37.7417ZM77.1016 42.8722C74.3377 42.8722 71.8108 42.2039 69.5208 40.8672C67.2702 39.4912 65.4738 37.6631 64.1313 35.3829C62.8284 33.0633 62.1769 30.4686 62.1769 27.5986C62.1769 24.7287 62.8284 22.1536 64.1313 19.8734C65.4738 17.5931 67.2702 15.7847 69.5208 14.448C71.8108 13.072 74.3575 12.384 77.1608 12.384C78.8981 12.384 80.5761 12.6789 82.1949 13.2686C83.8137 13.819 85.2944 14.6446 86.6368 15.7454V1.12046L91.0194 0.117945V42.4005H86.696V39.275C84.0901 41.6731 80.892 42.8722 77.1016 42.8722ZM77.5162 39.0391C79.3719 39.0391 81.0894 38.6853 82.6687 37.9776C84.2875 37.2306 85.6102 36.2085 86.6368 34.9111V20.2862C85.6102 19.0281 84.2875 18.0453 82.6687 17.3376C81.0894 16.5906 79.3719 16.2171 77.5162 16.2171C75.463 16.2171 73.5876 16.7086 71.8898 17.6914C70.2315 18.6743 68.9088 20.0306 67.9217 21.7605C66.9741 23.451 66.5003 25.3774 66.5003 27.5397C66.5003 29.7019 66.9741 31.648 67.9217 33.3778C68.9088 35.1077 70.2315 36.4837 71.8898 37.5058C73.5876 38.528 75.463 39.0391 77.5162 39.0391ZM7.4623 40.9262C9.75233 42.2629 12.299 42.9312 15.1023 42.9312C17.2344 42.9312 19.2875 42.5184 21.2617 41.6928C23.2359 40.8672 25.0126 39.7074 26.592 38.2135L23.8676 35.2649C22.6041 36.4837 21.242 37.4075 19.7811 38.0366C18.3597 38.6656 16.8396 38.9801 15.2208 38.9801C13.2071 38.9801 11.3711 38.4887 9.71284 37.5058C8.05455 36.4837 6.73186 35.1077 5.74477 33.3778C5.16816 32.3252 4.76699 31.1999 4.54124 30.0017H0.165825C0.440533 31.9353 1.05646 33.729 2.0136 35.3829C3.35603 37.7024 5.17227 39.5502 7.4623 40.9262ZM0.116455 25.5789C0.361686 23.5069 0.994068 21.6051 2.0136 19.8734C3.35603 17.5538 5.17227 15.7061 7.4623 14.3301C9.75233 12.9541 12.299 12.2661 15.1023 12.2661C17.2739 12.2661 19.3665 12.6789 21.3802 13.5045C23.3938 14.2907 25.1706 15.4309 26.7104 16.9248L23.9268 20.1093C22.7423 18.8512 21.3802 17.9077 19.8403 17.2786C18.3399 16.6103 16.7804 16.2761 15.1615 16.2761C13.1479 16.2761 11.3119 16.7872 9.65362 17.8094C8.0348 18.7922 6.73186 20.1486 5.74477 21.8784C5.10807 23.0143 4.68528 24.2478 4.47638 25.5789H0.116455ZM35.7746 40.9851C38.1041 42.3218 40.6705 42.9902 43.4738 42.9902C46.3166 42.9902 48.8831 42.3218 51.1731 40.9851C53.4631 39.6091 55.2793 37.7614 56.6218 35.4418C57.9642 33.1223 58.6354 30.5275 58.6354 27.6576C58.6354 24.7877 57.9642 22.1929 56.6218 19.8734C55.2793 17.5538 53.4631 15.7257 51.1731 14.389C48.8831 13.013 46.3166 12.325 43.4738 12.325C40.6705 12.325 38.1041 13.013 35.7746 14.389C33.4846 15.7257 31.6683 17.5538 30.3259 19.8734C28.9835 22.1929 28.3123 24.7877 28.3123 27.6576C28.3123 30.5275 28.9835 33.1223 30.3259 35.4418C31.6683 37.7614 33.4846 39.6091 35.7746 40.9851ZM48.9225 37.5648C47.3037 38.587 45.4875 39.0981 43.4738 39.0981C41.4602 39.0981 39.6242 38.587 37.9659 37.5648C36.3471 36.5426 35.0442 35.1666 34.0571 33.4368C33.1095 31.707 32.6357 29.7806 32.6357 27.6576C32.6357 25.4953 33.1095 23.5689 34.0571 21.8784C35.0442 20.1486 36.3471 18.7726 37.9659 17.7504C39.6242 16.7282 41.4602 16.2171 43.4738 16.2171C45.4875 16.2171 47.3037 16.7282 48.9225 17.7504C50.5808 18.7726 51.8838 20.1486 52.8314 21.8784C53.8185 23.5689 54.312 25.4953 54.312 27.6576C54.312 29.7806 53.8185 31.707 52.8314 33.4368C51.8838 35.1666 50.5808 36.5426 48.9225 37.5648ZM103.447 40.9262C105.777 42.2629 108.363 42.9312 111.206 42.9312C113.338 42.9312 115.292 42.6363 117.069 42.0466C118.885 41.4176 120.623 40.4937 122.281 39.275L119.557 36.3854C118.57 37.2503 117.346 37.9186 115.885 38.3904C114.424 38.8622 112.923 39.0981 111.384 39.0981C109.449 39.0981 107.672 38.6656 106.053 37.8007C104.435 36.8965 103.112 35.6777 102.085 34.1445C101.098 32.6112 100.486 30.8814 100.249 28.955H124.591V27.5986C124.591 24.768 123.959 22.2126 122.696 19.9323C121.472 17.6128 119.794 15.7847 117.661 14.448C115.569 13.072 113.2 12.384 110.554 12.384C107.83 12.384 105.362 13.072 103.151 14.448C100.94 15.7847 99.1832 17.6128 97.8803 19.9323C96.5773 22.2126 95.9259 24.768 95.9259 27.5986C95.9259 30.4686 96.5971 33.0633 97.9395 35.3829C99.3214 37.7024 101.157 39.5502 103.447 40.9262ZM120.208 25.4757H100.368C100.644 23.6672 101.256 22.075 102.204 20.699C103.151 19.2837 104.336 18.1829 105.757 17.3966C107.179 16.6103 108.738 16.2171 110.436 16.2171C112.094 16.2171 113.614 16.6299 114.996 17.4555C116.378 18.2418 117.523 19.3426 118.431 20.7579C119.379 22.1339 119.971 23.7065 120.208 25.4757ZM170.483 40.8672C172.891 42.2432 175.576 42.9312 178.537 42.9312C180.788 42.9312 182.841 42.6167 184.697 41.9877C186.592 41.3193 188.428 40.3168 190.205 38.9801L186.414 35.2649C185.506 36.1298 184.361 36.7982 182.979 37.2699C181.637 37.7024 180.235 37.9186 178.774 37.9186C177.076 37.9186 175.497 37.5451 174.036 36.7982C172.615 36.0512 171.43 35.029 170.483 33.7317C169.575 32.4343 168.963 30.96 168.647 29.3088H192.396V27.6576C192.396 24.6697 191.744 21.9963 190.441 19.6375C189.178 17.2393 187.46 15.3522 185.289 13.9762C183.117 12.5609 180.63 11.8533 177.827 11.8533C175.023 11.8533 172.477 12.5609 170.187 13.9762C167.897 15.3522 166.08 17.2197 164.738 19.5785C163.395 21.8981 162.724 24.4928 162.724 27.3627C162.724 30.272 163.415 32.9061 164.797 35.2649C166.218 37.6238 168.114 39.4912 170.483 40.8672ZM186.533 24.8859H168.706C168.982 23.2741 169.535 21.8784 170.364 20.699C171.233 19.4802 172.299 18.5367 173.562 17.8683C174.826 17.2 176.208 16.8658 177.708 16.8658C179.169 16.8658 180.511 17.2197 181.735 17.9273C182.999 18.5957 184.045 19.5392 184.874 20.7579C185.743 21.9374 186.296 23.3134 186.533 24.8859ZM210.827 42.8722C208.023 42.8722 205.457 42.1842 203.127 40.8082C200.798 39.4322 198.962 37.5845 197.619 35.2649C196.277 32.9061 195.606 30.272 195.606 27.3627C195.606 24.4535 196.277 21.8391 197.619 19.5195C198.962 17.2 200.798 15.3522 203.127 13.9762C205.496 12.6002 208.102 11.9122 210.945 11.9122C212.603 11.9122 214.202 12.1678 215.742 12.6789C217.282 13.1899 218.704 13.9369 220.006 14.9198V12.384H225.929V42.4005H220.066V39.5109C217.499 41.7518 214.42 42.8722 210.827 42.8722ZM211.596 37.7417C213.334 37.7417 214.913 37.4272 216.335 36.7982C217.795 36.1691 219.019 35.2649 220.006 34.0855V20.581C219.019 19.4802 217.795 18.6153 216.335 17.9863C214.913 17.3179 213.334 16.9838 211.596 16.9838C209.701 16.9838 207.984 17.4359 206.444 18.3401C204.904 19.2443 203.68 20.4827 202.772 22.0553C201.864 23.5886 201.41 25.3381 201.41 27.3038C201.41 29.2695 201.864 31.0386 202.772 32.6112C203.68 34.1838 204.904 35.4418 206.444 36.3854C207.984 37.2896 209.701 37.7417 211.596 37.7417ZM231.758 12.384V42.4005H237.68V20.581C238.509 19.3623 239.496 18.4581 240.641 17.8683C241.786 17.2393 243.07 16.9248 244.491 16.9248C246.623 16.9248 248.301 17.6128 249.525 18.9888C250.789 20.3255 251.42 22.1733 251.42 24.5321V42.4005H257.284V23.5296C257.284 23.0971 257.264 22.6647 257.224 22.2322C257.185 21.7998 257.126 21.387 257.047 20.9938C257.915 19.6178 258.942 18.5957 260.126 17.9273C261.311 17.259 262.634 16.9248 264.094 16.9248C266.227 16.9248 267.905 17.6128 269.129 18.9888C270.392 20.3255 271.024 22.1733 271.024 24.5321V42.4005H276.946V23.5296C276.946 21.2101 276.453 19.1657 275.466 17.3966C274.518 15.6274 273.195 14.2514 271.498 13.2686C269.839 12.2857 267.885 11.7943 265.634 11.7943C263.502 11.7943 261.587 12.2267 259.89 13.0917C258.192 13.9173 256.711 15.1557 255.448 16.8069C254.5 15.2736 253.217 14.0549 251.598 13.1506C250.019 12.2464 248.202 11.7943 246.149 11.7943C242.754 11.7943 239.931 12.9541 237.68 15.2736V12.384H231.758Z" fill="white"/>
</svg>
